<svg xmlns="http://www.w3.org/2000/svg" xmlns:xlink="http://www.w3.org/1999/xlink" width="68" zoomAndPan="magnify" viewBox="0 0 50.879997 37.5" height="50" preserveAspectRatio="xMidYMid meet" version="1.0"><defs><clipPath id="580a23e7c9"><path d="M 0.277344 0 L 50.484375 0 L 50.484375 37.007812 L 0.277344 37.007812 Z M 0.277344 0 " clip-rule="nonzero"/></clipPath><clipPath id="169d767adb"><path d="M 1.910156 0.433594 L 38.175781 0.433594 L 38.175781 36.703125 L 1.910156 36.703125 Z M 1.910156 0.433594 " clip-rule="nonzero"/></clipPath><clipPath id="6fb8c8aefb"><path d="M 11.746094 8.585938 L 28.769531 8.585938 L 28.769531 36.703125 L 11.746094 36.703125 Z M 11.746094 8.585938 " clip-rule="nonzero"/></clipPath></defs><g clip-path="url(#580a23e7c9)"><path fill="#ffffff" d="M 0.277344 0 L 50.605469 0 L 50.605469 37.007812 L 0.277344 37.007812 Z M 0.277344 0 " fill-opacity="1" fill-rule="nonzero"/><path fill="#ffffff" d="M 0.277344 0 L 50.605469 0 L 50.605469 37.007812 L 0.277344 37.007812 Z M 0.277344 0 " fill-opacity="1" fill-rule="nonzero"/></g><g clip-path="url(#169d767adb)"><path fill="#01a3ff" d="M 38.300781 18.652344 C 38.300781 21.105469 37.820312 23.488281 36.871094 25.734375 C 35.953125 27.902344 34.640625 29.847656 32.972656 31.519531 C 31.300781 33.1875 29.355469 34.5 27.1875 35.417969 C 25.972656 35.929688 24.714844 36.308594 23.429688 36.542969 L 23.429688 31.46875 C 29.125 29.988281 33.34375 24.800781 33.34375 18.648438 C 33.34375 11.347656 27.40625 5.410156 20.105469 5.410156 L 6.867188 5.410156 L 6.867188 18.652344 C 6.867188 22.820312 8.804688 26.542969 11.824219 28.972656 L 11.824219 10.363281 L 20.105469 10.363281 C 21.222656 10.363281 22.308594 10.585938 23.328125 11.019531 C 24.316406 11.4375 25.203125 12.035156 25.960938 12.796875 C 26.722656 13.554688 27.316406 14.441406 27.734375 15.425781 C 28.167969 16.449219 28.386719 17.535156 28.386719 18.652344 C 28.386719 19.769531 28.167969 20.851562 27.734375 21.875 C 27.316406 22.863281 26.722656 23.746094 25.960938 24.507812 C 25.226562 25.242188 24.375 25.824219 23.429688 26.238281 L 23.429688 18.675781 C 23.429688 18.675781 23.429688 18.65625 23.429688 18.644531 C 23.429688 16.8125 21.9375 15.320312 20.105469 15.320312 L 16.78125 15.320312 L 16.78125 36.542969 C 15.496094 36.308594 14.238281 35.929688 13.023438 35.417969 C 12.613281 35.242188 12.214844 35.058594 11.824219 34.859375 C 10.132812 33.992188 8.597656 32.875 7.238281 31.519531 C 5.570312 29.847656 4.257812 27.902344 3.339844 25.734375 C 2.394531 23.488281 1.910156 21.105469 1.910156 18.652344 L 1.910156 0.449219 L 20.105469 0.449219 C 22.5625 0.449219 24.945312 0.933594 27.191406 1.882812 C 29.355469 2.800781 31.300781 4.113281 32.972656 5.785156 C 34.644531 7.457031 35.953125 9.402344 36.871094 11.570312 C 37.820312 13.8125 38.300781 16.195312 38.300781 18.652344 Z M 38.300781 18.652344 " fill-opacity="1" fill-rule="nonzero"/></g><g clip-path="url(#6fb8c8aefb)"><path fill="#414456" d="M 38.300781 18.652344 C 38.300781 21.105469 37.820312 23.488281 36.871094 25.734375 C 35.953125 27.902344 34.640625 29.847656 32.972656 31.519531 C 31.300781 33.1875 29.355469 34.5 27.1875 35.417969 C 25.972656 35.929688 24.714844 36.308594 23.429688 36.542969 L 23.429688 31.46875 C 29.125 29.988281 33.34375 24.800781 33.34375 18.648438 C 33.34375 11.347656 27.40625 5.410156 20.105469 5.410156 L 6.867188 5.410156 L 6.867188 18.652344 C 6.867188 22.820312 8.804688 26.542969 11.824219 28.972656 L 11.824219 10.363281 L 20.105469 10.363281 C 21.222656 10.363281 22.308594 10.585938 23.328125 11.019531 C 24.316406 11.4375 25.203125 12.035156 25.960938 12.796875 C 26.722656 13.554688 27.316406 14.441406 27.734375 15.425781 C 28.167969 16.449219 28.386719 17.535156 28.386719 18.652344 C 28.386719 19.769531 28.167969 20.851562 27.734375 21.875 C 27.316406 22.863281 26.722656 23.746094 25.960938 24.507812 C 25.226562 25.242188 24.375 25.824219 23.429688 26.238281 L 23.429688 18.675781 C 23.429688 18.675781 23.429688 18.65625 23.429688 18.644531 C 23.429688 16.8125 21.9375 15.320312 20.105469 15.320312 L 16.78125 15.320312 L 16.78125 36.542969 C 15.496094 36.308594 14.238281 35.929688 13.023438 35.417969 C 12.613281 35.242188 12.214844 35.058594 11.824219 34.859375 C 10.132812 33.992188 8.597656 32.875 7.238281 31.519531 C 5.570312 29.847656 4.257812 27.902344 3.339844 25.734375 C 2.394531 23.488281 1.910156 21.105469 1.910156 18.652344 L 1.910156 0.449219 L 20.105469 0.449219 C 22.5625 0.449219 24.945312 0.933594 27.191406 1.882812 C 29.355469 2.800781 31.300781 4.113281 32.972656 5.785156 C 34.644531 7.457031 35.953125 9.402344 36.871094 11.570312 C 37.820312 13.8125 38.300781 16.195312 38.300781 18.652344 Z M 38.300781 18.652344 " fill-opacity="1" fill-rule="nonzero"/></g></svg>