<svg xmlns="http://www.w3.org/2000/svg" xmlns:xlink="http://www.w3.org/1999/xlink" width="318" zoomAndPan="magnify" viewBox="0 0 238.5 37.5" height="50" preserveAspectRatio="xMidYMid meet" version="1.0"><defs><g/><clipPath id="a31c65ad00"><path d="M 2.957031 0.433594 L 39.222656 0.433594 L 39.222656 36.703125 L 2.957031 36.703125 Z M 2.957031 0.433594 " clip-rule="nonzero"/></clipPath><clipPath id="d1d4c7a597"><path d="M 12.792969 8.585938 L 29.816406 8.585938 L 29.816406 36.703125 L 12.792969 36.703125 Z M 12.792969 8.585938 " clip-rule="nonzero"/></clipPath></defs><g clip-path="url(#a31c65ad00)"><path fill="#01a3ff" d="M 39.347656 18.652344 C 39.347656 21.105469 38.867188 23.488281 37.917969 25.734375 C 37 27.902344 35.6875 29.847656 34.019531 31.519531 C 32.347656 33.1875 30.402344 34.5 28.234375 35.417969 C 27.019531 35.929688 25.761719 36.308594 24.476562 36.542969 L 24.476562 31.46875 C 30.171875 29.988281 34.390625 24.800781 34.390625 18.648438 C 34.390625 11.347656 28.453125 5.410156 21.152344 5.410156 L 7.914062 5.410156 L 7.914062 18.652344 C 7.914062 22.820312 9.851562 26.542969 12.871094 28.972656 L 12.871094 10.363281 L 21.152344 10.363281 C 22.269531 10.363281 23.355469 10.585938 24.375 11.019531 C 25.363281 11.4375 26.25 12.035156 27.007812 12.796875 C 27.769531 13.554688 28.363281 14.441406 28.78125 15.425781 C 29.214844 16.449219 29.433594 17.535156 29.433594 18.652344 C 29.433594 19.769531 29.214844 20.851562 28.78125 21.875 C 28.363281 22.863281 27.769531 23.746094 27.007812 24.507812 C 26.273438 25.242188 25.421875 25.824219 24.476562 26.238281 L 24.476562 18.675781 C 24.476562 18.675781 24.476562 18.65625 24.476562 18.644531 C 24.476562 16.8125 22.984375 15.320312 21.152344 15.320312 L 17.828125 15.320312 L 17.828125 36.542969 C 16.542969 36.308594 15.285156 35.929688 14.070312 35.417969 C 13.660156 35.242188 13.261719 35.058594 12.871094 34.859375 C 11.179688 33.992188 9.644531 32.875 8.285156 31.519531 C 6.617188 29.847656 5.304688 27.902344 4.386719 25.734375 C 3.441406 23.488281 2.957031 21.105469 2.957031 18.652344 L 2.957031 0.449219 L 21.152344 0.449219 C 23.609375 0.449219 25.992188 0.933594 28.238281 1.882812 C 30.402344 2.800781 32.347656 4.113281 34.019531 5.785156 C 35.691406 7.457031 37 9.402344 37.917969 11.570312 C 38.867188 13.8125 39.347656 16.195312 39.347656 18.652344 Z M 39.347656 18.652344 " fill-opacity="1" fill-rule="nonzero"/></g><g clip-path="url(#d1d4c7a597)"><path fill="#ffffff" d="M 39.347656 18.652344 C 39.347656 21.105469 38.867188 23.488281 37.917969 25.734375 C 37 27.902344 35.6875 29.847656 34.019531 31.519531 C 32.347656 33.1875 30.402344 34.5 28.234375 35.417969 C 27.019531 35.929688 25.761719 36.308594 24.476562 36.542969 L 24.476562 31.46875 C 30.171875 29.988281 34.390625 24.800781 34.390625 18.648438 C 34.390625 11.347656 28.453125 5.410156 21.152344 5.410156 L 7.914062 5.410156 L 7.914062 18.652344 C 7.914062 22.820312 9.851562 26.542969 12.871094 28.972656 L 12.871094 10.363281 L 21.152344 10.363281 C 22.269531 10.363281 23.355469 10.585938 24.375 11.019531 C 25.363281 11.4375 26.25 12.035156 27.007812 12.796875 C 27.769531 13.554688 28.363281 14.441406 28.78125 15.425781 C 29.214844 16.449219 29.433594 17.535156 29.433594 18.652344 C 29.433594 19.769531 29.214844 20.851562 28.78125 21.875 C 28.363281 22.863281 27.769531 23.746094 27.007812 24.507812 C 26.273438 25.242188 25.421875 25.824219 24.476562 26.238281 L 24.476562 18.675781 C 24.476562 18.675781 24.476562 18.65625 24.476562 18.644531 C 24.476562 16.8125 22.984375 15.320312 21.152344 15.320312 L 17.828125 15.320312 L 17.828125 36.542969 C 16.542969 36.308594 15.285156 35.929688 14.070312 35.417969 C 13.660156 35.242188 13.261719 35.058594 12.871094 34.859375 C 11.179688 33.992188 9.644531 32.875 8.285156 31.519531 C 6.617188 29.847656 5.304688 27.902344 4.386719 25.734375 C 3.441406 23.488281 2.957031 21.105469 2.957031 18.652344 L 2.957031 0.449219 L 21.152344 0.449219 C 23.609375 0.449219 25.992188 0.933594 28.238281 1.882812 C 30.402344 2.800781 32.347656 4.113281 34.019531 5.785156 C 35.691406 7.457031 37 9.402344 37.917969 11.570312 C 38.867188 13.8125 39.347656 16.195312 39.347656 18.652344 Z M 39.347656 18.652344 " fill-opacity="1" fill-rule="nonzero"/></g><g fill="#ffffff" fill-opacity="1"><g transform="translate(46.799946, 33.327622)"><g><path d="M 8.8125 -29.546875 L 8.8125 0 L 2.5625 0 L 2.5625 -29.546875 Z M 8.8125 -29.546875 "/></g></g></g><g fill="#ffffff" fill-opacity="1"><g transform="translate(58.18476, 33.327622)"><g><path d="M 13.046875 0 L 2.5625 0 L 2.5625 -29.546875 L 13.125 -29.546875 C 16.09375 -29.546875 18.648438 -28.957031 20.796875 -27.78125 C 22.953125 -26.601562 24.609375 -24.910156 25.765625 -22.703125 C 26.921875 -20.503906 27.5 -17.867188 27.5 -14.796875 C 27.5 -11.722656 26.914062 -9.078125 25.75 -6.859375 C 24.59375 -4.648438 22.9375 -2.953125 20.78125 -1.765625 C 18.625 -0.585938 16.046875 0 13.046875 0 Z M 8.8125 -5.359375 L 12.78125 -5.359375 C 15.5625 -5.359375 17.671875 -6.109375 19.109375 -7.609375 C 20.546875 -9.109375 21.265625 -11.503906 21.265625 -14.796875 C 21.265625 -18.078125 20.546875 -20.460938 19.109375 -21.953125 C 17.671875 -23.441406 15.566406 -24.1875 12.796875 -24.1875 L 8.8125 -24.1875 Z M 8.8125 -5.359375 "/></g></g></g><g fill="#ffffff" fill-opacity="1"><g transform="translate(87.6988, 33.327622)"><g><path d="M 2.5625 0 L 2.5625 -29.546875 L 22.46875 -29.546875 L 22.46875 -24.390625 L 8.8125 -24.390625 L 8.8125 -17.359375 L 21.453125 -17.359375 L 21.453125 -12.203125 L 8.8125 -12.203125 L 8.8125 -5.15625 L 22.53125 -5.15625 L 22.53125 0 Z M 2.5625 0 "/></g></g></g><g fill="#ffffff" fill-opacity="1"><g transform="translate(112.558028, 33.327622)"><g><path d="M 2.5625 -29.546875 L 10.265625 -29.546875 L 18.40625 -9.6875 L 18.75 -9.6875 L 26.890625 -29.546875 L 34.59375 -29.546875 L 34.59375 0 L 28.53125 0 L 28.53125 -19.234375 L 28.296875 -19.234375 L 20.640625 -0.140625 L 16.515625 -0.140625 L 8.875 -19.296875 L 8.625 -19.296875 L 8.625 0 L 2.5625 0 Z M 2.5625 -29.546875 "/></g></g></g><g fill="#ffffff" fill-opacity="1"><g transform="translate(150.055845, 33.327622)"><g><path d="M 7.65625 0 L 0.96875 0 L 11.171875 -29.546875 L 19.21875 -29.546875 L 29.40625 0 L 22.703125 0 L 20.515625 -6.734375 L 9.859375 -6.734375 Z M 11.4375 -11.609375 L 18.9375 -11.609375 L 15.3125 -22.796875 L 15.078125 -22.796875 Z M 11.4375 -11.609375 "/></g></g></g></svg>